<svg data-v-0dd9719b="" version="1.0" xmlns="http://www.w3.org/2000/svg" xmlns:xlink="http://www.w3.org/1999/xlink" width="100%" height="100%" viewBox="0 0 340.000000 250.000000" preserveAspectRatio="xMidYMid meet" color-interpolation-filters="sRGB" style="margin: auto;"> <rect data-v-0dd9719b="" x="0" y="0" width="100%" height="100%" fill="#ffffff" fill-opacity="1" class="background"></rect> <rect data-v-0dd9719b="" x="0" y="0" width="100%" height="100%" fill="url(#watermark)" fill-opacity="1" class="watermarklayer"></rect> <g data-v-0dd9719b="" class="iconmbgsvg" transform="translate(88.15499877929688,89.24609756470527)"><g fill="#FD9A96" hollow-target="text"><g mask="url(#09bf5ed2-6011-4c84-97f9-40cf6c53bcbb)"><g><rect fill="#FD9A96" fill-opacity="0" stroke-width="2" x="0" y="0" width="102.5" height="71.50780307099852" class="image-rect"></rect> <svg x="0" y="0" width="102.5" height="71.50780307099852" filtersec="colorsb9638953557" class="image-svg-svg primary" style="overflow: visible;"><svg xmlns="http://www.w3.org/2000/svg" viewBox="-0.00145721435546875 0.0017375946044921875 1490.7723388671875 1040.02099609375"><g><path d="M413.94 1037.16C170.07 1029 104 1011.66 59.15 943.88c-18.14-27.39-38.5-88.67-45-135.42C-8.6 644.41-3 302.32 24.35 184.42 49.13 77.64 107.4 25.33 213.69 14.44 318.1 3.73 590.29-2.1 855 .7c285.83 3 420.39 9.13 469.08 21.31 95.24 23.82 141.44 94 157.55 239.2 3 27.45 6.79 123.3 8.32 213 6.16 362.07-21.08 477.25-124.89 528.11-39.2 19.2-64.84 23.62-175.63 30.23-120.33 7.18-611.37 10.11-775.53 4.63z" fill="#805FF3"></path></g></svg></svg> <!----></g></g> <g transform="translate(4.80999755859375,20.488901138305664)"><g data-gra="path-name" fill-rule="" class="tp-name"><g transform="scale(1)"><g><path d="M6.21 0Q4.91 0 4.16-0.72 3.42-1.44 3.42-2.75L3.42-2.75 3.42-28.98Q3.42-30.29 4.16-31 4.91-31.72 6.21-31.72L6.21-31.72 15.12-31.72Q22.9-31.72 27.2-27.56 31.5-23.4 31.5-15.88L31.5-15.88Q31.5-8.32 27.2-4.16 22.9 0 15.12 0L15.12 0 6.21 0ZM14.76-4.72Q25.7-4.72 25.7-15.88L25.7-15.88Q25.7-27 14.76-27L14.76-27 9.22-27 9.22-4.72 14.76-4.72ZM43.14 0Q41.84 0 41.09-0.72 40.35-1.44 40.35-2.75L40.35-2.75 40.35-28.98Q40.35-30.29 41.09-31 41.84-31.72 43.14-31.72L43.14-31.72 59.38-31.72Q60.69-31.72 61.41-31.14 62.13-30.55 62.13-29.47L62.13-29.47Q62.13-28.35 61.41-27.74 60.69-27.13 59.38-27.13L59.38-27.13 46.02-27.13 46.02-18.4 58.48-18.4Q59.79-18.4 60.51-17.82 61.23-17.23 61.23-16.11L61.23-16.11Q61.23-15.03 60.51-14.45 59.79-13.86 58.48-13.86L58.48-13.86 46.02-13.86 46.02-4.59 59.38-4.59Q60.69-4.59 61.41-3.98 62.13-3.38 62.13-2.25L62.13-2.25Q62.13-1.17 61.41-0.58 60.69 0 59.38 0L59.38 0 43.14 0ZM72.64 0Q71.34 0 70.6-0.72 69.86-1.44 69.86-2.75L69.86-2.75 69.86-28.98Q69.86-30.29 70.6-31 71.34-31.72 72.64-31.72L72.64-31.72 88.89-31.72Q90.19-31.72 90.92-31.14 91.64-30.55 91.64-29.47L91.64-29.47Q91.64-28.35 90.92-27.74 90.19-27.13 88.89-27.13L88.89-27.13 75.53-27.13 75.53-18.4 87.99-18.4Q89.3-18.4 90.02-17.82 90.73-17.23 90.73-16.11L90.73-16.11Q90.73-15.03 90.02-14.45 89.3-13.86 87.99-13.86L87.99-13.86 75.53-13.86 75.53-4.59 88.89-4.59Q90.19-4.59 90.92-3.98 91.64-3.38 91.64-2.25L91.64-2.25Q91.64-1.17 90.92-0.58 90.19 0 88.89 0L88.89 0 72.64 0ZM118.89-16.38Q121.63-15.62 123.14-13.59 124.65-11.56 124.65-8.64L124.65-8.64Q124.65-4.59 121.75-2.29 118.84 0 113.76 0L113.76 0 102.15 0Q100.84 0 100.1-0.72 99.36-1.44 99.36-2.75L99.36-2.75 99.36-28.98Q99.36-30.29 100.1-31 100.84-31.72 102.15-31.72L102.15-31.72 113.31-31.72Q118.26-31.72 121.07-29.54 123.88-27.36 123.88-23.45L123.88-23.45Q123.88-20.93 122.56-19.08 121.23-17.23 118.89-16.38L118.89-16.38ZM105.03-27.22L105.03-18.36 112.36-18.36Q118.35-18.36 118.35-22.81L118.35-22.81Q118.35-25.06 116.86-26.14 115.38-27.22 112.36-27.22L112.36-27.22 105.03-27.22ZM113.13-4.5Q116.28-4.5 117.72-5.63 119.16-6.75 119.16-9.13L119.16-9.13Q119.16-11.52 117.7-12.69 116.23-13.86 113.13-13.86L113.13-13.86 105.03-13.86 105.03-4.5 113.13-4.5ZM147.23 0.4Q142.59 0.4 139.19-1.57 135.8-3.55 133.95-7.25 132.11-10.93 132.11-15.88L132.11-15.88Q132.11-20.84 133.93-24.5 135.75-28.17 139.17-30.15 142.59-32.13 147.23-32.13L147.23-32.13Q151.86-32.13 155.26-30.15 158.66-28.17 160.48-24.5 162.3-20.84 162.3-15.88L162.3-15.88Q162.3-10.93 160.46-7.25 158.61-3.55 155.21-1.57 151.81 0.4 147.23 0.4L147.23 0.4ZM147.23-4.23Q151.59-4.23 154.04-7.25 156.5-10.26 156.5-15.88L156.5-15.88Q156.5-21.51 154.04-24.5 151.59-27.49 147.23-27.49L147.23-27.49Q142.81-27.49 140.36-24.5 137.91-21.51 137.91-15.88L137.91-15.88Q137.91-10.26 140.36-7.25 142.81-4.23 147.23-4.23L147.23-4.23Z" transform="translate(-3.4200000762939453, 32.130001068115234)"></path></g> <!----> <!----> <!----> <!----> <!----> <!----> <!----></g></g> <!----></g></g></g><mask id="09bf5ed2-6011-4c84-97f9-40cf6c53bcbb"><g fill="white"><g><rect fill-opacity="1" stroke-width="2" x="0" y="0" width="102.5" height="71.50780307099852" class="image-rect"></rect> <svg x="0" y="0" width="102.5" height="71.50780307099852" filtersec="colorsb9638953557" class="image-svg-svg primary" style="overflow: visible;"><svg xmlns="http://www.w3.org/2000/svg" viewBox="-0.00145721435546875 0.0017375946044921875 1490.7723388671875 1040.02099609375"><g><path d="M413.94 1037.16C170.07 1029 104 1011.66 59.15 943.88c-18.14-27.39-38.5-88.67-45-135.42C-8.6 644.41-3 302.32 24.35 184.42 49.13 77.64 107.4 25.33 213.69 14.44 318.1 3.73 590.29-2.1 855 .7c285.83 3 420.39 9.13 469.08 21.31 95.24 23.82 141.44 94 157.55 239.2 3 27.45 6.79 123.3 8.32 213 6.16 362.07-21.08 477.25-124.89 528.11-39.2 19.2-64.84 23.62-175.63 30.23-120.33 7.18-611.37 10.11-775.53 4.63z"></path></g></svg></svg> </g></g> <g transform="translate(4.80999755859375,20.488901138305664)" fill="black" stroke="black" stroke-width="6" stroke-linejoin="round"><g data-gra="path-name" fill-rule="" class="tp-name"><g transform="scale(1)"><g><path d="M6.21 0Q4.91 0 4.16-0.72 3.42-1.44 3.42-2.75L3.42-2.75 3.42-28.98Q3.42-30.29 4.16-31 4.91-31.72 6.21-31.72L6.21-31.72 15.12-31.72Q22.9-31.72 27.2-27.56 31.5-23.4 31.5-15.88L31.5-15.88Q31.5-8.32 27.2-4.16 22.9 0 15.12 0L15.12 0 6.21 0ZM14.76-4.72Q25.7-4.72 25.7-15.88L25.7-15.88Q25.7-27 14.76-27L14.76-27 9.22-27 9.22-4.72 14.76-4.72ZM43.14 0Q41.84 0 41.09-0.72 40.35-1.44 40.35-2.75L40.35-2.75 40.35-28.98Q40.35-30.29 41.09-31 41.84-31.72 43.14-31.72L43.14-31.72 59.38-31.72Q60.69-31.72 61.41-31.14 62.13-30.55 62.13-29.47L62.13-29.47Q62.13-28.35 61.41-27.74 60.69-27.13 59.38-27.13L59.38-27.13 46.02-27.13 46.02-18.4 58.48-18.4Q59.79-18.4 60.51-17.82 61.23-17.23 61.23-16.11L61.23-16.11Q61.23-15.03 60.51-14.45 59.79-13.86 58.48-13.86L58.48-13.86 46.02-13.86 46.02-4.59 59.38-4.59Q60.69-4.59 61.41-3.98 62.13-3.38 62.13-2.25L62.13-2.25Q62.13-1.17 61.41-0.58 60.69 0 59.38 0L59.38 0 43.14 0ZM72.64 0Q71.34 0 70.6-0.72 69.86-1.44 69.86-2.75L69.86-2.75 69.86-28.98Q69.86-30.29 70.6-31 71.34-31.72 72.64-31.72L72.64-31.72 88.89-31.72Q90.19-31.72 90.92-31.14 91.64-30.55 91.64-29.47L91.64-29.47Q91.64-28.35 90.92-27.74 90.19-27.13 88.89-27.13L88.89-27.13 75.53-27.13 75.53-18.4 87.99-18.4Q89.3-18.4 90.02-17.82 90.73-17.23 90.73-16.11L90.73-16.11Q90.73-15.03 90.02-14.45 89.3-13.86 87.99-13.86L87.99-13.86 75.53-13.86 75.53-4.59 88.89-4.59Q90.19-4.59 90.92-3.98 91.64-3.38 91.64-2.25L91.64-2.25Q91.64-1.17 90.92-0.58 90.19 0 88.89 0L88.89 0 72.64 0ZM118.89-16.38Q121.63-15.62 123.14-13.59 124.65-11.56 124.65-8.64L124.65-8.64Q124.65-4.59 121.75-2.29 118.84 0 113.76 0L113.76 0 102.15 0Q100.84 0 100.1-0.72 99.36-1.44 99.36-2.75L99.36-2.75 99.36-28.98Q99.36-30.29 100.1-31 100.84-31.72 102.15-31.72L102.15-31.72 113.31-31.72Q118.26-31.72 121.07-29.54 123.88-27.36 123.88-23.45L123.88-23.45Q123.88-20.93 122.56-19.08 121.23-17.23 118.89-16.38L118.89-16.38ZM105.03-27.22L105.03-18.36 112.36-18.36Q118.35-18.36 118.35-22.81L118.35-22.81Q118.35-25.06 116.86-26.14 115.38-27.22 112.36-27.22L112.36-27.22 105.03-27.22ZM113.13-4.5Q116.28-4.5 117.72-5.63 119.16-6.75 119.16-9.13L119.16-9.13Q119.16-11.52 117.7-12.69 116.23-13.86 113.13-13.86L113.13-13.86 105.03-13.86 105.03-4.5 113.13-4.5ZM147.23 0.4Q142.59 0.4 139.19-1.57 135.8-3.55 133.95-7.25 132.11-10.93 132.11-15.88L132.11-15.88Q132.11-20.84 133.93-24.5 135.75-28.17 139.17-30.15 142.59-32.13 147.23-32.13L147.23-32.13Q151.86-32.13 155.26-30.15 158.66-28.17 160.48-24.5 162.3-20.84 162.3-15.88L162.3-15.88Q162.3-10.93 160.46-7.25 158.61-3.55 155.21-1.57 151.81 0.4 147.23 0.4L147.23 0.4ZM147.23-4.23Q151.59-4.23 154.04-7.25 156.5-10.26 156.5-15.88L156.5-15.88Q156.5-21.51 154.04-24.5 151.59-27.49 147.23-27.49L147.23-27.49Q142.81-27.49 140.36-24.5 137.91-21.51 137.91-15.88L137.91-15.88Q137.91-10.26 140.36-7.25 142.81-4.23 147.23-4.23L147.23-4.23Z" transform="translate(-3.4200000762939453, 32.130001068115234)"></path></g>       </g></g> </g></mask><defs v-gra="od"></defs></svg>